<mxfile host="app.diagrams.net" modified="2022-06-17T06:02:57.410Z" agent="5.0 (Windows NT 10.0; Win64; x64) AppleWebKit/537.36 (KHTML, like Gecko) Chrome/102.0.0.0 Safari/537.36" etag="1jBEctLIU1RHyy37sQzv" version="20.0.1" type="github">
  <diagram id="C5RBs43oDa-KdzZeNtuy" name="Page-1">
    <mxGraphModel dx="1422" dy="762" grid="1" gridSize="10" guides="1" tooltips="1" connect="1" arrows="1" fold="1" page="1" pageScale="1" pageWidth="827" pageHeight="1169" math="0" shadow="0">
      <root>
        <mxCell id="WIyWlLk6GJQsqaUBKTNV-0" />
        <mxCell id="WIyWlLk6GJQsqaUBKTNV-1" parent="WIyWlLk6GJQsqaUBKTNV-0" />
        <mxCell id="EFw4RUJNSDzE9PIeXD-g-0" style="edgeStyle=orthogonalEdgeStyle;rounded=0;orthogonalLoop=1;jettySize=auto;html=1;entryX=0.5;entryY=0;entryDx=0;entryDy=0;" edge="1" parent="WIyWlLk6GJQsqaUBKTNV-1" source="EFw4RUJNSDzE9PIeXD-g-1" target="EFw4RUJNSDzE9PIeXD-g-3">
          <mxGeometry relative="1" as="geometry" />
        </mxCell>
        <mxCell id="EFw4RUJNSDzE9PIeXD-g-1" value="http请求" style="rounded=0;whiteSpace=wrap;html=1;" vertex="1" parent="WIyWlLk6GJQsqaUBKTNV-1">
          <mxGeometry x="74" y="70" width="120" height="60" as="geometry" />
        </mxCell>
        <mxCell id="EFw4RUJNSDzE9PIeXD-g-2" style="edgeStyle=orthogonalEdgeStyle;rounded=0;orthogonalLoop=1;jettySize=auto;html=1;" edge="1" parent="WIyWlLk6GJQsqaUBKTNV-1" source="EFw4RUJNSDzE9PIeXD-g-3" target="EFw4RUJNSDzE9PIeXD-g-5">
          <mxGeometry relative="1" as="geometry" />
        </mxCell>
        <mxCell id="EFw4RUJNSDzE9PIeXD-g-3" value="参数判断&lt;br&gt;及session存放数据" style="rounded=0;whiteSpace=wrap;html=1;" vertex="1" parent="WIyWlLk6GJQsqaUBKTNV-1">
          <mxGeometry x="74" y="200" width="120" height="60" as="geometry" />
        </mxCell>
        <mxCell id="EFw4RUJNSDzE9PIeXD-g-4" style="edgeStyle=orthogonalEdgeStyle;rounded=0;orthogonalLoop=1;jettySize=auto;html=1;entryX=0.5;entryY=0;entryDx=0;entryDy=0;" edge="1" parent="WIyWlLk6GJQsqaUBKTNV-1" source="EFw4RUJNSDzE9PIeXD-g-5" target="EFw4RUJNSDzE9PIeXD-g-7">
          <mxGeometry relative="1" as="geometry" />
        </mxCell>
        <mxCell id="EFw4RUJNSDzE9PIeXD-g-5" value="根据wsc_appkey_config查询，AES解密用户信息" style="rounded=0;whiteSpace=wrap;html=1;" vertex="1" parent="WIyWlLk6GJQsqaUBKTNV-1">
          <mxGeometry x="74" y="330" width="120" height="60" as="geometry" />
        </mxCell>
        <mxCell id="EFw4RUJNSDzE9PIeXD-g-6" style="edgeStyle=orthogonalEdgeStyle;rounded=0;orthogonalLoop=1;jettySize=auto;html=1;entryX=0.5;entryY=0;entryDx=0;entryDy=0;" edge="1" parent="WIyWlLk6GJQsqaUBKTNV-1" source="EFw4RUJNSDzE9PIeXD-g-7" target="EFw4RUJNSDzE9PIeXD-g-9">
          <mxGeometry relative="1" as="geometry" />
        </mxCell>
        <mxCell id="EFw4RUJNSDzE9PIeXD-g-7" value="用户标签等相关信息存放session" style="rounded=0;whiteSpace=wrap;html=1;" vertex="1" parent="WIyWlLk6GJQsqaUBKTNV-1">
          <mxGeometry x="74" y="440" width="120" height="60" as="geometry" />
        </mxCell>
        <mxCell id="EFw4RUJNSDzE9PIeXD-g-8" style="edgeStyle=orthogonalEdgeStyle;rounded=0;orthogonalLoop=1;jettySize=auto;html=1;entryX=0;entryY=0.5;entryDx=0;entryDy=0;" edge="1" parent="WIyWlLk6GJQsqaUBKTNV-1" source="EFw4RUJNSDzE9PIeXD-g-9" target="EFw4RUJNSDzE9PIeXD-g-11">
          <mxGeometry relative="1" as="geometry" />
        </mxCell>
        <mxCell id="EFw4RUJNSDzE9PIeXD-g-9" value="查询vip_user_info插入ot更新" style="rounded=0;whiteSpace=wrap;html=1;" vertex="1" parent="WIyWlLk6GJQsqaUBKTNV-1">
          <mxGeometry x="74" y="580" width="120" height="60" as="geometry" />
        </mxCell>
        <mxCell id="EFw4RUJNSDzE9PIeXD-g-10" style="edgeStyle=orthogonalEdgeStyle;rounded=0;orthogonalLoop=1;jettySize=auto;html=1;entryX=0.5;entryY=1;entryDx=0;entryDy=0;" edge="1" parent="WIyWlLk6GJQsqaUBKTNV-1" source="EFw4RUJNSDzE9PIeXD-g-11" target="EFw4RUJNSDzE9PIeXD-g-13">
          <mxGeometry relative="1" as="geometry" />
        </mxCell>
        <mxCell id="EFw4RUJNSDzE9PIeXD-g-11" value="查询用户等级wsc_vip_level更新vip账户信息和vip用户信息" style="rounded=0;whiteSpace=wrap;html=1;" vertex="1" parent="WIyWlLk6GJQsqaUBKTNV-1">
          <mxGeometry x="324" y="580" width="120" height="60" as="geometry" />
        </mxCell>
        <mxCell id="EFw4RUJNSDzE9PIeXD-g-12" style="edgeStyle=orthogonalEdgeStyle;rounded=0;orthogonalLoop=1;jettySize=auto;html=1;" edge="1" parent="WIyWlLk6GJQsqaUBKTNV-1" source="EFw4RUJNSDzE9PIeXD-g-13" target="EFw4RUJNSDzE9PIeXD-g-15">
          <mxGeometry relative="1" as="geometry" />
        </mxCell>
        <mxCell id="EFw4RUJNSDzE9PIeXD-g-13" value="处理用户标签&lt;br&gt;wsc_vip_tag" style="rounded=0;whiteSpace=wrap;html=1;" vertex="1" parent="WIyWlLk6GJQsqaUBKTNV-1">
          <mxGeometry x="324" y="440" width="120" height="60" as="geometry" />
        </mxCell>
        <mxCell id="EFw4RUJNSDzE9PIeXD-g-14" style="edgeStyle=orthogonalEdgeStyle;rounded=0;orthogonalLoop=1;jettySize=auto;html=1;entryX=0.5;entryY=1;entryDx=0;entryDy=0;" edge="1" parent="WIyWlLk6GJQsqaUBKTNV-1" source="EFw4RUJNSDzE9PIeXD-g-15" target="EFw4RUJNSDzE9PIeXD-g-17">
          <mxGeometry relative="1" as="geometry" />
        </mxCell>
        <mxCell id="EFw4RUJNSDzE9PIeXD-g-15" value="处理用药人信息&lt;br&gt;wsc_vip_patient插入或是更新" style="rounded=0;whiteSpace=wrap;html=1;" vertex="1" parent="WIyWlLk6GJQsqaUBKTNV-1">
          <mxGeometry x="324" y="300" width="120" height="60" as="geometry" />
        </mxCell>
        <mxCell id="EFw4RUJNSDzE9PIeXD-g-16" style="edgeStyle=orthogonalEdgeStyle;rounded=0;orthogonalLoop=1;jettySize=auto;html=1;entryX=0.5;entryY=1;entryDx=0;entryDy=0;" edge="1" parent="WIyWlLk6GJQsqaUBKTNV-1" source="EFw4RUJNSDzE9PIeXD-g-17" target="EFw4RUJNSDzE9PIeXD-g-19">
          <mxGeometry relative="1" as="geometry" />
        </mxCell>
        <mxCell id="EFw4RUJNSDzE9PIeXD-g-17" value="封装用户信息存放session" style="rounded=0;whiteSpace=wrap;html=1;" vertex="1" parent="WIyWlLk6GJQsqaUBKTNV-1">
          <mxGeometry x="324" y="190" width="120" height="60" as="geometry" />
        </mxCell>
        <mxCell id="EFw4RUJNSDzE9PIeXD-g-18" style="edgeStyle=orthogonalEdgeStyle;rounded=0;orthogonalLoop=1;jettySize=auto;html=1;entryX=0;entryY=0.5;entryDx=0;entryDy=0;" edge="1" parent="WIyWlLk6GJQsqaUBKTNV-1" source="EFw4RUJNSDzE9PIeXD-g-19" target="EFw4RUJNSDzE9PIeXD-g-20">
          <mxGeometry relative="1" as="geometry" />
        </mxCell>
        <mxCell id="EFw4RUJNSDzE9PIeXD-g-19" value="新用户自动领券&lt;br&gt;配置渠道-标签-券&lt;br&gt;符合条件渠道发放" style="rounded=0;whiteSpace=wrap;html=1;" vertex="1" parent="WIyWlLk6GJQsqaUBKTNV-1">
          <mxGeometry x="324" y="70" width="120" height="60" as="geometry" />
        </mxCell>
        <mxCell id="EFw4RUJNSDzE9PIeXD-g-20" value="跳转页面&lt;br&gt;根据module判断" style="rounded=0;whiteSpace=wrap;html=1;" vertex="1" parent="WIyWlLk6GJQsqaUBKTNV-1">
          <mxGeometry x="570" y="70" width="120" height="60" as="geometry" />
        </mxCell>
      </root>
    </mxGraphModel>
  </diagram>
</mxfile>
